<svg fill="#000" height="256px" width="256px" version="1.1" id="Icons"
  xmlns="http://www.w3.org/2000/svg" xmlns:xlink="http://www.w3.org/1999/xlink"
  viewBox="-4.8 -4.8 41.60 41.60" xml:space="preserve" transform="rotate(0)"
  stroke="#000">
  <g id="SVGRepo_bgCarrier" stroke-width="0">
    <path transform="translate(-4.8, -4.8), scale(2.6)" fill="#8aff9d"
      d="M9.166.33a2.25 2.25 0 00-2.332 0l-5.25 3.182A2.25 2.25 0 00.5 5.436v5.128a2.25 2.25 0 001.084 1.924l5.25 3.182a2.25 2.25 0 002.332 0l5.25-3.182a2.25 2.25 0 001.084-1.924V5.436a2.25 2.25 0 00-1.084-1.924L9.166.33z"
      strokewidth="0"></path>
  </g>

  <g id="SVGRepo_iconCarrier">
    <g>
      <path
        d="M19,4c-0.6,0-1,0.4-1,1v10c0,1.1-0.9,2-2,2s-2-0.9-2-2V5c0-0.6-0.4-1-1-1s-1,0.4-1,1v10c0,1.9,1.3,3.4,3,3.9v7.4 c-0.6,0.3-1,1-1,1.7c0,1.1,0.9,2,2,2s2-0.9,2-2c0-0.7-0.4-1.4-1-1.7v-7.4c1.7-0.4,3-2,3-3.9V5C20,4.4,19.6,4,19,4z">
      </path>

    </g>
  </g>
</svg>